<svg width="21" height="20" viewBox="0 0 21 20" fill="none" xmlns="http://www.w3.org/2000/svg">
<g clip-path="url(#clip0_0_283)">
<path d="M7.32021 2.5H4.9702C3.72854 2.5 2.71185 3.50833 2.71185 4.75V15.25C2.71185 16.4917 3.7202 17.5 4.9702 17.5H15.4618C16.7035 17.5 17.7202 16.4917 17.7202 15.25V7.75C17.7202 6.50834 16.7118 5.5 15.4618 5.5H10.6869C10.4035 5.5 10.1452 5.34167 10.0119 5.08333L9.33686 3.74166C8.95353 2.98333 8.17021 2.5 7.32021 2.5V2.5Z" stroke="white" stroke-width="1.5" stroke-linecap="round" stroke-linejoin="round"/>
<path d="M15.4786 5.5V4.73333C15.4619 3.90833 14.7952 3.25 13.9702 3.25H9.47021" stroke="white" stroke-width="1.5" stroke-linecap="round" stroke-linejoin="round"/>
<path d="M6.46185 13.75H9.47017" stroke="white" stroke-width="1.5" stroke-linecap="round" stroke-linejoin="round"/>
</g>
<defs>
<clipPath id="clip0_0_283">
<rect width="20" height="20" fill="white" transform="translate(0.220215)"/>
</clipPath>
</defs>
</svg>
