<svg width="20" height="20" viewBox="0 0 20 20" fill="none" xmlns="http://www.w3.org/2000/svg">
<g clip-path="url(#clip0_329_1289)">
<path d="M5.64062 8.89995V5.38331C5.65729 4.61664 5.95727 3.88331 6.49893 3.34998C7.03227 2.80831 7.75725 2.5083 8.51558 2.5083H13.7989C14.5573 2.5083 15.2906 2.81661 15.8323 3.36661C16.3739 3.91661 16.6823 4.65831 16.6823 5.43331V16.0667C16.6823 17.5583 15.799 17.9583 14.7073 16.95L12.2239 14.6583C12.1739 14.6166 12.1239 14.5833 12.0823 14.55" stroke="#EAEAEA" stroke-width="1.5" stroke-miterlimit="10"/>
<path d="M7.84868 17.5C10.3404 17.5 12.3654 15.4417 12.3654 12.9083C12.3654 10.375 10.3404 8.31665 7.84868 8.31665C5.35702 8.31665 3.33203 10.375 3.33203 12.9083C3.33203 15.4417 5.35702 17.5 7.84868 17.5Z" stroke="#EAEAEA" stroke-width="1.5" stroke-miterlimit="10"/>
<path d="M9.48255 12.9083H6.19922" stroke="#EAEAEA" stroke-width="1.5" stroke-miterlimit="10" stroke-linecap="round"/>
<path d="M7.85156 14.575V11.2333" stroke="#EAEAEA" stroke-width="1.5" stroke-miterlimit="10" stroke-linecap="round"/>
</g>
<defs>
<clipPath id="clip0_329_1289">
<rect width="20" height="20" fill="white"/>
</clipPath>
</defs>
</svg>
