<svg width="20" height="20" viewBox="0 0 20 20" fill="none" xmlns="http://www.w3.org/2000/svg">
<g clip-path="url(#clip0_329_1135)">
<path d="M10 17.5C14.1417 17.5 17.5 14.1417 17.5 10C17.5 5.85833 14.1417 2.5 10 2.5C5.85833 2.5 2.5 5.85833 2.5 10C2.5 14.1417 5.85833 17.5 10 17.5Z" stroke="#EAEAEA" stroke-width="1.5" stroke-miterlimit="10"/>
<path d="M10.0013 17.5C11.843 17.5 13.3346 14.1417 13.3346 10C13.3346 5.85833 11.843 2.5 10.0013 2.5C8.15964 2.5 6.66797 5.85833 6.66797 10C6.66797 14.1417 8.15964 17.5 10.0013 17.5Z" stroke="#EAEAEA" stroke-width="1.5" stroke-miterlimit="10"/>
<path d="M2.5 9.65002C7.45833 10.5667 12.5417 10.5667 17.5 9.65002" stroke="#EAEAEA" stroke-width="1.5" stroke-miterlimit="10"/>
</g>
<defs>
<clipPath id="clip0_329_1135">
<rect width="20" height="20" fill="white"/>
</clipPath>
</defs>
</svg>
