<svg width="20" height="20" viewBox="0 0 20 20" fill="none" xmlns="http://www.w3.org/2000/svg">
<g clip-path="url(#clip0_475_9267)">
<path d="M5.64172 8.90044V5.3838C5.65839 4.61713 5.95836 3.8838 6.50003 3.35046C7.03336 2.8088 7.75835 2.50879 8.51668 2.50879H13.8C14.5584 2.50879 15.2917 2.8171 15.8334 3.3671C16.375 3.9171 16.6834 4.6588 16.6834 5.4338V16.0671C16.6834 17.5588 15.8001 17.9588 14.7084 16.9505L12.225 14.6588C12.175 14.6171 12.125 14.5838 12.0834 14.5505" stroke="#EAEAEA" stroke-width="1.5" stroke-miterlimit="10"/>
<path d="M7.85003 17.4998C10.3417 17.4998 12.3667 15.4414 12.3667 12.9081C12.3667 10.3747 10.3417 8.31641 7.85003 8.31641C5.35836 8.31641 3.33337 10.3747 3.33337 12.9081C3.33337 15.4414 5.35836 17.4998 7.85003 17.4998Z" stroke="#EAEAEA" stroke-width="1.5" stroke-miterlimit="10"/>
<path d="M9.48329 12.9082H6.19995" stroke="#EAEAEA" stroke-width="1.5" stroke-miterlimit="10" stroke-linecap="round"/>
<path d="M7.84998 14.5751V11.2334" stroke="#EAEAEA" stroke-width="1.5" stroke-miterlimit="10" stroke-linecap="round"/>
</g>
<defs>
<clipPath id="clip0_475_9267">
<rect width="20" height="20" fill="white"/>
</clipPath>
</defs>
</svg>
