<svg width="500" height="500" viewBox="0 0 177 23" fill="none" xmlns="http://www.w3.org/2000/svg">
<path d="M2.91 22V10.42H0.33V6.61H2.91V4.6C2.91 3.2 3.31 2.1 4.11 1.3C4.91 0.499999 6.01 0.0999994 7.41 0.0999994H12.09V3.91H8.43C8.19 3.91 7.98 4 7.8 4.18C7.64 4.34 7.56 4.54 7.56 4.78V6.61H11.43V10.42H7.56V22H2.91ZM21.4988 22C19.7588 22 18.2288 21.68 16.9088 21.04C15.5888 20.38 14.5588 19.48 13.8188 18.34C13.0988 17.18 12.7388 15.84 12.7388 14.32C12.7388 12.64 13.0888 11.2 13.7888 10C14.4888 8.8 15.4188 7.88 16.5788 7.24C17.7588 6.58 19.0588 6.25 20.4788 6.25C22.0988 6.25 23.4488 6.59 24.5288 7.27C25.6288 7.95 26.4588 8.88 27.0188 10.06C27.5788 11.22 27.8588 12.55 27.8588 14.05C27.8588 14.31 27.8388 14.62 27.7988 14.98C27.7788 15.32 27.7488 15.59 27.7088 15.79H17.6288C17.7488 16.31 17.9788 16.75 18.3188 17.11C18.6588 17.47 19.0888 17.74 19.6088 17.92C20.1288 18.08 20.7088 18.16 21.3488 18.16H26.0588V22H21.4988ZM17.5088 12.88H23.3588C23.3188 12.56 23.2588 12.25 23.1788 11.95C23.0988 11.65 22.9688 11.39 22.7888 11.17C22.6288 10.93 22.4388 10.73 22.2188 10.57C21.9988 10.39 21.7388 10.25 21.4388 10.15C21.1588 10.05 20.8388 10 20.4788 10C20.0188 10 19.6088 10.08 19.2488 10.24C18.8888 10.4 18.5888 10.62 18.3488 10.9C18.1088 11.16 17.9188 11.47 17.7788 11.83C17.6588 12.17 17.5688 12.52 17.5088 12.88ZM38.6081 22C36.8681 22 35.3381 21.68 34.0181 21.04C32.6981 20.38 31.6681 19.48 30.9281 18.34C30.2081 17.18 29.8481 15.84 29.8481 14.32C29.8481 12.64 30.1981 11.2 30.8981 10C31.5981 8.8 32.5281 7.88 33.6881 7.24C34.8681 6.58 36.1681 6.25 37.5881 6.25C39.2081 6.25 40.5581 6.59 41.6381 7.27C42.7381 7.95 43.5681 8.88 44.1281 10.06C44.6881 11.22 44.9681 12.55 44.9681 14.05C44.9681 14.31 44.9481 14.62 44.9081 14.98C44.8881 15.32 44.8581 15.59 44.8181 15.79H34.7381C34.8581 16.31 35.0881 16.75 35.4281 17.11C35.7681 17.47 36.1981 17.74 36.7181 17.92C37.2381 18.08 37.8181 18.16 38.4581 18.16H43.1681V22H38.6081ZM34.6181 12.88H40.4681C40.4281 12.56 40.3681 12.25 40.2881 11.95C40.2081 11.65 40.0781 11.39 39.8981 11.17C39.7381 10.93 39.5481 10.73 39.3281 10.57C39.1081 10.39 38.8481 10.25 38.5481 10.15C38.2681 10.05 37.9481 10 37.5881 10C37.1281 10 36.7181 10.08 36.3581 10.24C35.9981 10.4 35.6981 10.62 35.4581 10.9C35.2181 11.16 35.0281 11.47 34.8881 11.83C34.7681 12.17 34.6781 12.52 34.6181 12.88ZM55.2075 22.36C53.9275 22.36 52.7675 22.16 51.7275 21.76C50.7075 21.36 49.8475 20.79 49.1475 20.05C48.4475 19.29 47.9075 18.4 47.5275 17.38C47.1475 16.36 46.9575 15.25 46.9575 14.05C46.9575 12.49 47.2675 11.13 47.8875 9.97C48.5275 8.81 49.3975 7.9 50.4975 7.24C51.6175 6.58 52.8975 6.25 54.3375 6.25C54.9575 6.25 55.5375 6.33 56.0775 6.49C56.6375 6.65 57.1375 6.89 57.5775 7.21C58.0375 7.51 58.4175 7.87 58.7175 8.29H58.8075V0.0999994H63.4575V14.02C63.4575 15.7 63.1175 17.17 62.4375 18.43C61.7575 19.69 60.7975 20.66 59.5575 21.34C58.3375 22.02 56.8875 22.36 55.2075 22.36ZM55.2075 18.34C55.9275 18.34 56.5475 18.17 57.0675 17.83C57.6075 17.47 58.0175 16.99 58.2975 16.39C58.5775 15.77 58.7175 15.08 58.7175 14.32C58.7175 13.56 58.5775 12.88 58.2975 12.28C58.0175 11.68 57.6075 11.21 57.0675 10.87C56.5475 10.51 55.9275 10.33 55.2075 10.33C54.5075 10.33 53.8875 10.51 53.3475 10.87C52.8075 11.21 52.3975 11.68 52.1175 12.28C51.8375 12.88 51.6975 13.56 51.6975 14.32C51.6975 15.08 51.8375 15.77 52.1175 16.39C52.3975 16.99 52.8075 17.47 53.3475 17.83C53.8875 18.17 54.5075 18.34 55.2075 18.34ZM74.8378 22V0.999999H84.4378C85.8578 0.999999 87.1478 1.31 88.3078 1.93C89.4878 2.55 90.4178 3.41 91.0978 4.51C91.7978 5.61 92.1478 6.88 92.1478 8.32C92.1478 9.66 91.8278 10.87 91.1878 11.95C90.5478 13.01 89.7078 13.87 88.6678 14.53L90.3478 17.38C90.4478 17.52 90.5578 17.63 90.6778 17.71C90.8178 17.79 90.9978 17.83 91.2178 17.83H93.0778V22H90.1378C89.2378 22 88.4178 21.79 87.6778 21.37C86.9378 20.93 86.3578 20.36 85.9378 19.66L83.6878 15.67C83.5478 15.67 83.3978 15.67 83.2378 15.67C83.0978 15.67 82.9478 15.67 82.7878 15.67H79.8778V22H74.8378ZM79.8778 11.5H83.8678C84.4478 11.5 84.9878 11.38 85.4878 11.14C85.9878 10.88 86.3778 10.52 86.6578 10.06C86.9578 9.58 87.1078 9.01 87.1078 8.35C87.1078 7.69 86.9578 7.13 86.6578 6.67C86.3578 6.19 85.9578 5.83 85.4578 5.59C84.9778 5.33 84.4478 5.2 83.8678 5.2H79.8778V11.5ZM102.71 22C100.97 22 99.4397 21.68 98.1197 21.04C96.7997 20.38 95.7697 19.48 95.0297 18.34C94.3097 17.18 93.9497 15.84 93.9497 14.32C93.9497 12.64 94.2997 11.2 94.9997 10C95.6997 8.8 96.6297 7.88 97.7897 7.24C98.9697 6.58 100.27 6.25 101.69 6.25C103.31 6.25 104.66 6.59 105.74 7.27C106.84 7.95 107.67 8.88 108.23 10.06C108.79 11.22 109.07 12.55 109.07 14.05C109.07 14.31 109.05 14.62 109.01 14.98C108.99 15.32 108.96 15.59 108.92 15.79H98.8397C98.9597 16.31 99.1897 16.75 99.5297 17.11C99.8697 17.47 100.3 17.74 100.82 17.92C101.34 18.08 101.92 18.16 102.56 18.16H107.27V22H102.71ZM98.7197 12.88H104.57C104.53 12.56 104.47 12.25 104.39 11.95C104.31 11.65 104.18 11.39 104 11.17C103.84 10.93 103.65 10.73 103.43 10.57C103.21 10.39 102.95 10.25 102.65 10.15C102.37 10.05 102.05 10 101.69 10C101.23 10 100.82 10.08 100.46 10.24C100.1 10.4 99.7997 10.62 99.5597 10.9C99.3197 11.16 99.1297 11.47 98.9897 11.83C98.8697 12.17 98.7797 12.52 98.7197 12.88ZM117.959 22.36C116.599 22.36 115.399 22.01 114.359 21.31C113.319 20.61 112.509 19.67 111.929 18.49C111.349 17.29 111.059 15.94 111.059 14.44C111.059 12.88 111.399 11.49 112.079 10.27C112.759 9.03 113.719 8.05 114.959 7.33C116.219 6.61 117.699 6.25 119.399 6.25C121.119 6.25 122.579 6.61 123.779 7.33C124.999 8.03 125.929 9 126.569 10.24C127.229 11.46 127.559 12.83 127.559 14.35V22H122.999V19.54H122.879C122.599 20.08 122.239 20.57 121.799 21.01C121.359 21.43 120.819 21.76 120.179 22C119.559 22.24 118.819 22.36 117.959 22.36ZM119.339 18.34C120.039 18.34 120.649 18.17 121.169 17.83C121.709 17.47 122.119 16.98 122.399 16.36C122.679 15.74 122.819 15.05 122.819 14.29C122.819 13.55 122.679 12.88 122.399 12.28C122.119 11.68 121.709 11.21 121.169 10.87C120.649 10.51 120.039 10.33 119.339 10.33C118.619 10.33 117.989 10.51 117.449 10.87C116.909 11.21 116.499 11.68 116.219 12.28C115.939 12.88 115.799 13.55 115.799 14.29C115.799 15.05 115.939 15.74 116.219 16.36C116.499 16.98 116.909 17.47 117.449 17.83C117.989 18.17 118.619 18.34 119.339 18.34ZM138.528 22.36C137.248 22.36 136.088 22.16 135.048 21.76C134.028 21.36 133.168 20.79 132.468 20.05C131.768 19.29 131.228 18.4 130.848 17.38C130.468 16.36 130.278 15.25 130.278 14.05C130.278 12.49 130.588 11.13 131.208 9.97C131.848 8.81 132.718 7.9 133.818 7.24C134.938 6.58 136.218 6.25 137.658 6.25C138.278 6.25 138.858 6.33 139.398 6.49C139.958 6.65 140.458 6.89 140.898 7.21C141.358 7.51 141.738 7.87 142.038 8.29H142.128V0.0999994H146.778V14.02C146.778 15.7 146.438 17.17 145.758 18.43C145.078 19.69 144.118 20.66 142.878 21.34C141.658 22.02 140.208 22.36 138.528 22.36ZM138.528 18.34C139.248 18.34 139.868 18.17 140.388 17.83C140.928 17.47 141.338 16.99 141.618 16.39C141.898 15.77 142.038 15.08 142.038 14.32C142.038 13.56 141.898 12.88 141.618 12.28C141.338 11.68 140.928 11.21 140.388 10.87C139.868 10.51 139.248 10.33 138.528 10.33C137.828 10.33 137.208 10.51 136.668 10.87C136.128 11.21 135.718 11.68 135.438 12.28C135.158 12.88 135.018 13.56 135.018 14.32C135.018 15.08 135.158 15.77 135.438 16.39C135.718 16.99 136.128 17.47 136.668 17.83C137.208 18.17 137.828 18.34 138.528 18.34ZM158.169 22C156.429 22 154.899 21.68 153.579 21.04C152.259 20.38 151.229 19.48 150.489 18.34C149.769 17.18 149.409 15.84 149.409 14.32C149.409 12.64 149.759 11.2 150.459 10C151.159 8.8 152.089 7.88 153.249 7.24C154.429 6.58 155.729 6.25 157.149 6.25C158.769 6.25 160.119 6.59 161.199 7.27C162.299 7.95 163.129 8.88 163.689 10.06C164.249 11.22 164.529 12.55 164.529 14.05C164.529 14.31 164.509 14.62 164.469 14.98C164.449 15.32 164.419 15.59 164.379 15.79H154.299C154.419 16.31 154.649 16.75 154.989 17.11C155.329 17.47 155.759 17.74 156.279 17.92C156.799 18.08 157.379 18.16 158.019 18.16H162.729V22H158.169ZM154.179 12.88H160.029C159.989 12.56 159.929 12.25 159.849 11.95C159.769 11.65 159.639 11.39 159.459 11.17C159.299 10.93 159.109 10.73 158.889 10.57C158.669 10.39 158.409 10.25 158.109 10.15C157.829 10.05 157.509 10 157.149 10C156.689 10 156.279 10.08 155.919 10.24C155.559 10.4 155.259 10.62 155.019 10.9C154.779 11.16 154.589 11.47 154.449 11.83C154.329 12.17 154.239 12.52 154.179 12.88ZM167.118 22V11.14C167.118 9.74 167.518 8.64 168.318 7.84C169.118 7.04 170.228 6.64 171.648 6.64H176.118V10.42H172.788C172.508 10.42 172.268 10.52 172.068 10.72C171.868 10.9 171.768 11.14 171.768 11.44V22H167.118Z" fill="url(#paint0_linear_190_7447)"/>
<defs>
<linearGradient id="paint0_linear_190_7447" x1="83" y1="-1.00001" x2="144.5" y2="23" gradientUnits="userSpaceOnUse">
<stop stop-color="#653DA2"/>
<stop offset="0.6875" stop-color="#C1B1DA"/>
<stop offset="1" stop-color="white"/>
<stop offset="1" stop-color="#AF9ACE"/>
</linearGradient>
</defs>
</svg>
