<svg width="282" height="209" viewBox="0 0 282 209" fill="none" xmlns="http://www.w3.org/2000/svg">
<path d="M96.134 203V194.508H94.242V191.714H96.134V190.24C96.134 189.213 96.4273 188.407 97.014 187.82C97.6007 187.233 98.4073 186.94 99.434 186.94H102.866V189.734H100.182C100.006 189.734 99.852 189.8 99.72 189.932C99.6027 190.049 99.544 190.196 99.544 190.372V191.714H102.382V194.508H99.544V203H96.134ZM109.766 203C108.49 203 107.368 202.765 106.4 202.296C105.432 201.812 104.676 201.152 104.134 200.316C103.606 199.465 103.342 198.483 103.342 197.368C103.342 196.136 103.598 195.08 104.112 194.2C104.625 193.32 105.307 192.645 106.158 192.176C107.023 191.692 107.976 191.45 109.018 191.45C110.206 191.45 111.196 191.699 111.988 192.198C112.794 192.697 113.403 193.379 113.814 194.244C114.224 195.095 114.43 196.07 114.43 197.17C114.43 197.361 114.415 197.588 114.386 197.852C114.371 198.101 114.349 198.299 114.32 198.446H106.928C107.016 198.827 107.184 199.15 107.434 199.414C107.683 199.678 107.998 199.876 108.38 200.008C108.761 200.125 109.186 200.184 109.656 200.184H113.11V203H109.766ZM106.84 196.312H111.13C111.1 196.077 111.056 195.85 110.998 195.63C110.939 195.41 110.844 195.219 110.712 195.058C110.594 194.882 110.455 194.735 110.294 194.618C110.132 194.486 109.942 194.383 109.722 194.31C109.516 194.237 109.282 194.2 109.018 194.2C108.68 194.2 108.38 194.259 108.116 194.376C107.852 194.493 107.632 194.655 107.456 194.86C107.28 195.051 107.14 195.278 107.038 195.542C106.95 195.791 106.884 196.048 106.84 196.312ZM122.313 203C121.037 203 119.915 202.765 118.947 202.296C117.979 201.812 117.223 201.152 116.681 200.316C116.153 199.465 115.889 198.483 115.889 197.368C115.889 196.136 116.145 195.08 116.659 194.2C117.172 193.32 117.854 192.645 118.705 192.176C119.57 191.692 120.523 191.45 121.565 191.45C122.753 191.45 123.743 191.699 124.535 192.198C125.341 192.697 125.95 193.379 126.361 194.244C126.771 195.095 126.977 196.07 126.977 197.17C126.977 197.361 126.962 197.588 126.933 197.852C126.918 198.101 126.896 198.299 126.867 198.446H119.475C119.563 198.827 119.731 199.15 119.981 199.414C120.23 199.678 120.545 199.876 120.927 200.008C121.308 200.125 121.733 200.184 122.203 200.184H125.657V203H122.313ZM119.387 196.312H123.677C123.647 196.077 123.603 195.85 123.545 195.63C123.486 195.41 123.391 195.219 123.259 195.058C123.141 194.882 123.002 194.735 122.841 194.618C122.679 194.486 122.489 194.383 122.269 194.31C122.063 194.237 121.829 194.2 121.565 194.2C121.227 194.2 120.927 194.259 120.663 194.376C120.399 194.493 120.179 194.655 120.003 194.86C119.827 195.051 119.687 195.278 119.585 195.542C119.497 195.791 119.431 196.048 119.387 196.312ZM134.486 203.264C133.547 203.264 132.696 203.117 131.934 202.824C131.186 202.531 130.555 202.113 130.042 201.57C129.528 201.013 129.132 200.36 128.854 199.612C128.575 198.864 128.436 198.05 128.436 197.17C128.436 196.026 128.663 195.029 129.118 194.178C129.587 193.327 130.225 192.66 131.032 192.176C131.853 191.692 132.792 191.45 133.848 191.45C134.302 191.45 134.728 191.509 135.124 191.626C135.534 191.743 135.901 191.919 136.224 192.154C136.561 192.374 136.84 192.638 137.06 192.946H137.126V186.94H140.536V197.148C140.536 198.38 140.286 199.458 139.788 200.382C139.289 201.306 138.585 202.017 137.676 202.516C136.781 203.015 135.718 203.264 134.486 203.264ZM134.486 200.316C135.014 200.316 135.468 200.191 135.85 199.942C136.246 199.678 136.546 199.326 136.752 198.886C136.957 198.431 137.06 197.925 137.06 197.368C137.06 196.811 136.957 196.312 136.752 195.872C136.546 195.432 136.246 195.087 135.85 194.838C135.468 194.574 135.014 194.442 134.486 194.442C133.972 194.442 133.518 194.574 133.122 194.838C132.726 195.087 132.425 195.432 132.22 195.872C132.014 196.312 131.912 196.811 131.912 197.368C131.912 197.925 132.014 198.431 132.22 198.886C132.425 199.326 132.726 199.678 133.122 199.942C133.518 200.191 133.972 200.316 134.486 200.316ZM148.881 203V187.6H155.921C156.962 187.6 157.908 187.827 158.759 188.282C159.624 188.737 160.306 189.367 160.805 190.174C161.318 190.981 161.575 191.912 161.575 192.968C161.575 193.951 161.34 194.838 160.871 195.63C160.402 196.407 159.786 197.038 159.023 197.522L160.255 199.612C160.328 199.715 160.409 199.795 160.497 199.854C160.6 199.913 160.732 199.942 160.893 199.942H162.257V203H160.101C159.441 203 158.84 202.846 158.297 202.538C157.754 202.215 157.329 201.797 157.021 201.284L155.371 198.358C155.268 198.358 155.158 198.358 155.041 198.358C154.938 198.358 154.828 198.358 154.711 198.358H152.577V203H148.881ZM152.577 195.3H155.503C155.928 195.3 156.324 195.212 156.691 195.036C157.058 194.845 157.344 194.581 157.549 194.244C157.769 193.892 157.879 193.474 157.879 192.99C157.879 192.506 157.769 192.095 157.549 191.758C157.329 191.406 157.036 191.142 156.669 190.966C156.317 190.775 155.928 190.68 155.503 190.68H152.577V195.3ZM169.32 203C168.044 203 166.922 202.765 165.954 202.296C164.986 201.812 164.231 201.152 163.688 200.316C163.16 199.465 162.896 198.483 162.896 197.368C162.896 196.136 163.153 195.08 163.666 194.2C164.18 193.32 164.862 192.645 165.712 192.176C166.578 191.692 167.531 191.45 168.572 191.45C169.76 191.45 170.75 191.699 171.542 192.198C172.349 192.697 172.958 193.379 173.368 194.244C173.779 195.095 173.984 196.07 173.984 197.17C173.984 197.361 173.97 197.588 173.94 197.852C173.926 198.101 173.904 198.299 173.874 198.446H166.482C166.57 198.827 166.739 199.15 166.988 199.414C167.238 199.678 167.553 199.876 167.934 200.008C168.316 200.125 168.741 200.184 169.21 200.184H172.664V203H169.32ZM166.394 196.312H170.684C170.655 196.077 170.611 195.85 170.552 195.63C170.494 195.41 170.398 195.219 170.266 195.058C170.149 194.882 170.01 194.735 169.848 194.618C169.687 194.486 169.496 194.383 169.276 194.31C169.071 194.237 168.836 194.2 168.572 194.2C168.235 194.2 167.934 194.259 167.67 194.376C167.406 194.493 167.186 194.655 167.01 194.86C166.834 195.051 166.695 195.278 166.592 195.542C166.504 195.791 166.438 196.048 166.394 196.312ZM180.503 203.264C179.506 203.264 178.626 203.007 177.863 202.494C177.101 201.981 176.507 201.291 176.081 200.426C175.656 199.546 175.443 198.556 175.443 197.456C175.443 196.312 175.693 195.293 176.191 194.398C176.69 193.489 177.394 192.77 178.303 192.242C179.227 191.714 180.313 191.45 181.559 191.45C182.821 191.45 183.891 191.714 184.771 192.242C185.666 192.755 186.348 193.467 186.817 194.376C187.301 195.271 187.543 196.275 187.543 197.39V203H184.199V201.196H184.111C183.906 201.592 183.642 201.951 183.319 202.274C182.997 202.582 182.601 202.824 182.131 203C181.677 203.176 181.134 203.264 180.503 203.264ZM181.515 200.316C182.029 200.316 182.476 200.191 182.857 199.942C183.253 199.678 183.554 199.319 183.759 198.864C183.965 198.409 184.067 197.903 184.067 197.346C184.067 196.803 183.965 196.312 183.759 195.872C183.554 195.432 183.253 195.087 182.857 194.838C182.476 194.574 182.029 194.442 181.515 194.442C180.987 194.442 180.525 194.574 180.129 194.838C179.733 195.087 179.433 195.432 179.227 195.872C179.022 196.312 178.919 196.803 178.919 197.346C178.919 197.903 179.022 198.409 179.227 198.864C179.433 199.319 179.733 199.678 180.129 199.942C180.525 200.191 180.987 200.316 181.515 200.316ZM195.587 203.264C194.648 203.264 193.798 203.117 193.035 202.824C192.287 202.531 191.656 202.113 191.143 201.57C190.63 201.013 190.234 200.36 189.955 199.612C189.676 198.864 189.537 198.05 189.537 197.17C189.537 196.026 189.764 195.029 190.219 194.178C190.688 193.327 191.326 192.66 192.133 192.176C192.954 191.692 193.893 191.45 194.949 191.45C195.404 191.45 195.829 191.509 196.225 191.626C196.636 191.743 197.002 191.919 197.325 192.154C197.662 192.374 197.941 192.638 198.161 192.946H198.227V186.94H201.637V197.148C201.637 198.38 201.388 199.458 200.889 200.382C200.39 201.306 199.686 202.017 198.777 202.516C197.882 203.015 196.819 203.264 195.587 203.264ZM195.587 200.316C196.115 200.316 196.57 200.191 196.951 199.942C197.347 199.678 197.648 199.326 197.853 198.886C198.058 198.431 198.161 197.925 198.161 197.368C198.161 196.811 198.058 196.312 197.853 195.872C197.648 195.432 197.347 195.087 196.951 194.838C196.57 194.574 196.115 194.442 195.587 194.442C195.074 194.442 194.619 194.574 194.223 194.838C193.827 195.087 193.526 195.432 193.321 195.872C193.116 196.312 193.013 196.811 193.013 197.368C193.013 197.925 193.116 198.431 193.321 198.886C193.526 199.326 193.827 199.678 194.223 199.942C194.619 200.191 195.074 200.316 195.587 200.316ZM209.99 203C208.714 203 207.592 202.765 206.624 202.296C205.656 201.812 204.901 201.152 204.358 200.316C203.83 199.465 203.566 198.483 203.566 197.368C203.566 196.136 203.823 195.08 204.336 194.2C204.85 193.32 205.532 192.645 206.382 192.176C207.248 191.692 208.201 191.45 209.242 191.45C210.43 191.45 211.42 191.699 212.212 192.198C213.019 192.697 213.628 193.379 214.038 194.244C214.449 195.095 214.654 196.07 214.654 197.17C214.654 197.361 214.64 197.588 214.61 197.852C214.596 198.101 214.574 198.299 214.544 198.446H207.152C207.24 198.827 207.409 199.15 207.658 199.414C207.908 199.678 208.223 199.876 208.604 200.008C208.986 200.125 209.411 200.184 209.88 200.184H213.334V203H209.99ZM207.064 196.312H211.354C211.325 196.077 211.281 195.85 211.222 195.63C211.164 195.41 211.068 195.219 210.936 195.058C210.819 194.882 210.68 194.735 210.518 194.618C210.357 194.486 210.166 194.383 209.946 194.31C209.741 194.237 209.506 194.2 209.242 194.2C208.905 194.2 208.604 194.259 208.34 194.376C208.076 194.493 207.856 194.655 207.68 194.86C207.504 195.051 207.365 195.278 207.262 195.542C207.174 195.791 207.108 196.048 207.064 196.312ZM216.553 203V195.036C216.553 194.009 216.847 193.203 217.433 192.616C218.02 192.029 218.834 191.736 219.875 191.736H223.153V194.508H220.711C220.506 194.508 220.33 194.581 220.183 194.728C220.037 194.86 219.963 195.036 219.963 195.256V203H216.553Z" fill="url(#paint0_linear_3_2)"/>
<rect x="67.3867" y="186.425" width="16.5295" height="10.7754" rx="2.5" transform="rotate(38.3411 67.3867 186.425)" stroke="#DAA5FA"/>
<rect x="77.0063" y="181.702" width="16.5295" height="16.5295" rx="2.5" transform="rotate(38.3411 77.0063 181.702)" stroke="#DAA5FA"/>
<path d="M185.126 73.2478L176.999 62.0143C175.259 59.6039 172.467 58.175 169.494 58.1729H135.98C130.984 58.1729 126.934 62.2441 126.934 67.2663V139.282H243.318V82.3412C243.318 77.319 239.268 73.2478 234.272 73.2478H185.126Z" fill="white" stroke="white" stroke-width="0.7" stroke-linecap="round" stroke-linejoin="round"/>
<rect x="134" y="75.9287" width="100.41" height="24.5786" rx="4.97338" fill="white" stroke="white" stroke-width="0.7" stroke-linecap="round" stroke-linejoin="round"/>
<path d="M134.319 82.916H235.932C240.011 82.916 243.318 86.2227 243.318 90.3016V153.931C243.318 159.506 238.798 164.025 233.223 164.025H137.028C134.351 164.025 131.784 162.962 129.89 161.069C127.997 159.176 126.934 156.608 126.934 153.931V90.3016C126.934 88.3428 127.712 86.4643 129.097 85.0792C130.482 83.6941 132.361 82.916 134.319 82.916Z" fill="white"/>
<path fill-rule="evenodd" clip-rule="evenodd" d="M134.319 82.916H235.932C240.011 82.916 243.318 86.2227 243.318 90.3016V153.931C243.318 159.506 238.798 164.025 233.223 164.025H137.028C134.351 164.025 131.784 162.962 129.89 161.069C127.997 159.176 126.934 156.608 126.934 153.931V90.3016C126.934 88.3428 127.712 86.4643 129.097 85.0792C130.482 83.6941 132.361 82.916 134.319 82.916Z" stroke="#1B1B1B" stroke-width="0.7" stroke-linecap="round" stroke-linejoin="round"/>
<rect x="137.415" y="99.1641" width="44.4998" height="6.88201" fill="white"/>
<rect x="138.606" y="116.008" width="26.8955" height="16.2219" fill="white"/>
<path d="M220.269 136.137C218.205 137.85 215.862 139.195 213.343 140.116" stroke="#1B1B1B" stroke-width="0.7" stroke-linecap="round" stroke-linejoin="round"/>
<path d="M170.508 94.277L172.719 92.1016" stroke="#1B1B1B" stroke-width="0.7" stroke-linecap="round" stroke-linejoin="round"/>
<path d="M60.4504 1H60.4504C54.0174 1 48.8025 6.24224 48.8025 12.7089V74.3216H72.0982V12.7089C72.0983 6.24224 66.8834 1 60.4504 1Z" fill="#1B1B1B"/>
<mask id="mask0_3_2" style="mask-type:luminance" maskUnits="userSpaceOnUse" x="48" y="1" width="25" height="74">
<path fill-rule="evenodd" clip-rule="evenodd" d="M60.4495 1H60.4494C54.0165 1 48.8015 6.24224 48.8015 12.7089V74.3216H72.0972V12.7089C72.0973 6.24224 66.8824 1 60.4495 1Z" fill="white"/>
</mask>
<g mask="url(#mask0_3_2)">
<path d="M28.8872 1.34176C90.4029 -11.2491 75.49 91.1885 75.49 91.1885L90.4029 -11.2491L72.0965 -21.2432" fill="#1B1B1B"/>
</g>
<path fill-rule="evenodd" clip-rule="evenodd" d="M60.4504 1H60.4504C54.0174 1 48.8025 6.24224 48.8025 12.7089V74.3216H72.0982V12.7089C72.0983 6.24224 66.8834 1 60.4504 1Z" stroke="#1B1B1B" stroke-width="0.7" stroke-linecap="round" stroke-linejoin="round"/>
<path d="M178.554 1.00008H92.3841V1H60.4502C66.8831 1 72.0981 6.24225 72.0981 12.7089V21.3842V163.836H190.202V12.7089C190.202 6.24225 184.987 1.00008 178.554 1.00008Z" fill="#1B1B1B"/>
<mask id="mask1_3_2" style="mask-type:luminance" maskUnits="userSpaceOnUse" x="60" y="1" width="131" height="163">
<path fill-rule="evenodd" clip-rule="evenodd" d="M178.555 1.00008H92.385L60.4512 1C66.8841 1 72.099 6.24225 72.099 12.7089V21.3842V163.836H190.203V12.7089C190.203 6.24225 184.988 1.00008 178.555 1.00008Z" fill="white"/>
</mask>
<g mask="url(#mask1_3_2)">
<path d="M190.205 88.2803C198.526 184.051 68.0378 154.069 68.0378 154.069L53.9534 185.717L203.911 194.045L207.639 115.833" fill="#2D2543"/>
</g>
<path fill-rule="evenodd" clip-rule="evenodd" d="M178.554 1.00008H92.3841V1H60.4502C66.8831 1 72.0981 6.24225 72.0981 12.7089V21.3842V21.3842V163.836H190.202V12.7089C190.202 6.24225 184.987 1.00008 178.554 1.00008Z" stroke="#1B1B1B" stroke-width="0.7" stroke-linecap="round" stroke-linejoin="round"/>
<path d="M83.7461 163.836C83.0441 163.836 84.4139 163.956 83.7461 163.836V163.836Z" fill="#1B1B1B" stroke="#1B1B1B" stroke-width="0.7" stroke-linecap="round" stroke-linejoin="round"/>
<g opacity="0.73">
<path fill-rule="evenodd" clip-rule="evenodd" d="M83.7627 54.375C83.7627 49.446 87.7376 45.4502 92.641 45.4502C97.5443 45.4502 101.519 49.4459 101.519 54.375C101.519 59.3041 97.5443 63.2999 92.641 63.2999C87.7376 63.2999 83.7627 59.304 83.7627 54.375ZM88.7248 56.0053C89.385 57.5816 90.9306 58.6041 92.6394 58.5951C93.7558 58.5922 94.8252 58.1459 95.6125 57.3545C96.3998 56.5631 96.8404 55.4913 96.8375 54.375C96.8375 52.6661 95.8069 51.1259 94.2272 50.474C92.6475 49.8221 90.8306 50.1873 89.6254 51.3988C88.4202 52.6103 88.0647 54.4291 88.7248 56.0053Z" fill="white"/>
<path d="M92.6394 58.5951L92.6385 58.2451L92.6376 58.2451L92.6394 58.5951ZM88.7248 56.0053L88.402 56.1405L88.7248 56.0053ZM96.8375 54.375L96.4875 54.375L96.4875 54.3759L96.8375 54.375ZM94.2272 50.474L94.0937 50.7976L94.2272 50.474ZM89.6254 51.3988L89.8736 51.6456L89.6254 51.3988ZM92.641 45.1002C87.5426 45.1002 83.4127 49.2544 83.4127 54.375H84.1127C84.1127 49.6376 87.9326 45.8002 92.641 45.8002V45.1002ZM101.869 54.375C101.869 49.2544 97.7393 45.1002 92.641 45.1002V45.8002C97.3492 45.8002 101.169 49.6375 101.169 54.375H101.869ZM92.641 63.6499C97.7394 63.6499 101.869 59.4957 101.869 54.375H101.169C101.169 59.1125 97.3493 62.9499 92.641 62.9499V63.6499ZM83.4127 54.375C83.4127 59.4956 87.5426 63.6499 92.641 63.6499V62.9499C87.9326 62.9499 84.1127 59.1125 84.1127 54.375H83.4127ZM92.6376 58.2451C91.0705 58.2533 89.6531 57.3156 89.0477 55.8701L88.402 56.1405C89.1169 57.8475 90.7907 58.9548 92.6413 58.9451L92.6376 58.2451ZM95.3643 57.1077C94.6425 57.8333 93.662 58.2424 92.6385 58.2451L92.6404 58.9451C93.8495 58.9419 95.0079 58.4586 95.8606 57.6013L95.3643 57.1077ZM96.4875 54.3759C96.4902 55.3994 96.0862 56.382 95.3643 57.1077L95.8606 57.6013C96.7134 56.7441 97.1906 55.5832 97.1875 54.3741L96.4875 54.3759ZM94.0937 50.7976C95.5423 51.3954 96.4875 52.8078 96.4875 54.375L97.1875 54.375C97.1875 52.5244 96.0714 50.8564 94.3607 50.1505L94.0937 50.7976ZM89.8736 51.6456C90.9788 50.5346 92.645 50.1997 94.0937 50.7976L94.3607 50.1505C92.65 49.4445 90.6825 49.8399 89.3773 51.152L89.8736 51.6456ZM89.0477 55.8701C88.4422 54.4246 88.7683 52.7567 89.8736 51.6456L89.3773 51.152C88.0722 52.464 87.6871 54.4336 88.402 56.1405L89.0477 55.8701Z" fill="#1B1B1B"/>
<rect x="105.712" y="48.1582" width="73.7391" height="4.97948" rx="2.48974" fill="white" stroke="#1B1B1B" stroke-width="0.7" stroke-linecap="round" stroke-linejoin="round"/>
<rect x="105.712" y="55.6875" width="26.9566" height="4.90421" rx="2.45211" fill="white" stroke="#1B1B1B" stroke-width="0.7" stroke-linecap="round" stroke-linejoin="round"/>
<rect x="135.635" y="55.6875" width="26.9566" height="4.90421" rx="2.45211" fill="white" stroke="#1B1B1B" stroke-width="0.7" stroke-linecap="round" stroke-linejoin="round"/>
</g>
<g opacity="0.73">
<path fill-rule="evenodd" clip-rule="evenodd" d="M83.7627 119.561C83.7627 114.632 87.7376 110.636 92.641 110.636C97.5443 110.636 101.519 114.631 101.519 119.561C101.519 124.49 97.5443 128.485 92.641 128.485C87.7376 128.485 83.7627 124.49 83.7627 119.561ZM88.7248 121.191C89.385 122.767 90.9306 123.79 92.6395 123.781C93.7558 123.778 94.8252 123.331 95.6125 122.54C96.3998 121.749 96.8404 120.677 96.8375 119.56C96.8375 117.852 95.8069 116.311 94.2272 115.66C92.6475 115.008 90.8306 115.373 89.6254 116.584C88.4203 117.796 88.0647 119.615 88.7248 121.191Z" fill="white"/>
<path d="M92.6395 123.781L92.6385 123.431L92.6376 123.431L92.6395 123.781ZM88.7248 121.191L88.402 121.326L88.7248 121.191ZM95.6125 122.54L95.8606 122.787L95.6125 122.54ZM96.8375 119.56L96.4875 119.56L96.4875 119.561L96.8375 119.56ZM94.2272 115.66L94.0937 115.983L94.2272 115.66ZM89.6254 116.584L89.8736 116.831H89.8736L89.6254 116.584ZM92.641 110.286C87.5426 110.286 83.4127 114.44 83.4127 119.561H84.1127C84.1127 114.823 87.9326 110.986 92.641 110.986V110.286ZM101.869 119.561C101.869 114.44 97.7393 110.286 92.641 110.286V110.986C97.3492 110.986 101.169 114.823 101.169 119.561H101.869ZM92.641 128.835C97.7394 128.835 101.869 124.681 101.869 119.561H101.169C101.169 124.298 97.3493 128.135 92.641 128.135V128.835ZM83.4127 119.561C83.4127 124.681 87.5426 128.835 92.641 128.835V128.135C87.9326 128.135 84.1127 124.298 84.1127 119.561H83.4127ZM92.6376 123.431C91.0705 123.439 89.6531 122.501 89.0477 121.056L88.402 121.326C89.1169 123.033 90.7907 124.14 92.6413 124.131L92.6376 123.431ZM95.3643 122.293C94.6425 123.019 93.662 123.428 92.6385 123.431L92.6404 124.131C93.8495 124.127 95.0079 123.644 95.8606 122.787L95.3643 122.293ZM96.4875 119.561C96.4902 120.585 96.0862 121.568 95.3643 122.293L95.8606 122.787C96.7134 121.93 97.1907 120.769 97.1875 119.56L96.4875 119.561ZM94.0937 115.983C95.5423 116.581 96.4875 117.993 96.4875 119.56L97.1875 119.56C97.1875 117.71 96.0714 116.042 94.3607 115.336L94.0937 115.983ZM89.8736 116.831C90.9788 115.72 92.645 115.385 94.0937 115.983L94.3607 115.336C92.65 114.63 90.6825 115.025 89.3773 116.337L89.8736 116.831ZM89.0477 121.056C88.4422 119.61 88.7683 117.942 89.8736 116.831L89.3773 116.337C88.0722 117.649 87.6871 119.619 88.402 121.326L89.0477 121.056Z" fill="#1B1B1B"/>
<rect x="105.712" y="113.344" width="73.7391" height="4.97948" rx="2.48974" fill="white" stroke="#1B1B1B" stroke-width="0.7" stroke-linecap="round" stroke-linejoin="round"/>
<rect x="105.712" y="120.873" width="26.9566" height="4.90421" rx="2.45211" fill="white" stroke="#1B1B1B" stroke-width="0.7" stroke-linecap="round" stroke-linejoin="round"/>
<rect x="135.635" y="120.873" width="26.9566" height="4.90421" rx="2.45211" fill="white" stroke="#1B1B1B" stroke-width="0.7" stroke-linecap="round" stroke-linejoin="round"/>
</g>
<rect x="118.484" y="19.2949" width="26.2453" height="5.08295" rx="1.62334" fill="white" stroke="#1B1B1B" stroke-width="0.7" stroke-linecap="round" stroke-linejoin="round"/>
<rect x="109.576" y="29.3398" width="44.0633" height="2.90454" rx="1.45227" fill="white" stroke="#1B1B1B" stroke-width="0.7" stroke-linecap="round" stroke-linejoin="round"/>
<path fill-rule="evenodd" clip-rule="evenodd" d="M83.7612 86.9678C83.7612 82.0388 87.7361 78.043 92.6395 78.043C97.5428 78.043 101.518 82.0387 101.518 86.9678C101.518 91.8969 97.5429 95.8927 92.6395 95.8927C87.7361 95.8927 83.7612 91.8968 83.7612 86.9678ZM88.7235 88.598C89.3836 90.1742 90.9292 91.1968 92.6381 91.1878V91.1878C93.7544 91.1849 94.8238 90.7386 95.6111 89.9472C96.3984 89.1558 96.839 88.084 96.8361 86.9677C96.8361 85.2588 95.8055 83.7186 94.2258 83.0667C92.6461 82.4148 90.8293 82.7799 89.6241 83.9915C88.4189 85.203 88.0633 87.0218 88.7235 88.598Z" fill="white"/>
<path d="M92.6381 91.1878H92.9881C92.9881 91.0947 92.9509 91.0054 92.8849 90.9397C92.8189 90.874 92.7294 90.8373 92.6362 90.8378L92.6381 91.1878ZM88.7235 88.598L88.4006 88.7332L88.7235 88.598ZM92.6381 91.1878H92.2881C92.2881 91.2808 92.3251 91.37 92.3909 91.4356C92.4567 91.5013 92.546 91.5381 92.639 91.5378L92.6381 91.1878ZM95.6111 89.9472L95.8592 90.194L95.6111 89.9472ZM96.8361 86.9677L96.4861 86.9677L96.4861 86.9686L96.8361 86.9677ZM94.2258 83.0667L94.0923 83.3902L94.2258 83.0667ZM89.6241 83.9915L89.8722 84.2383H89.8722L89.6241 83.9915ZM92.6395 77.693C87.5411 77.693 83.4112 81.8472 83.4112 86.9678H84.1112C84.1112 82.2303 87.9311 78.393 92.6395 78.393V77.693ZM101.868 86.9678C101.868 81.8471 97.7378 77.693 92.6395 77.693V78.393C97.3478 78.393 101.168 82.2303 101.168 86.9678H101.868ZM92.6395 96.2427C97.7379 96.2427 101.868 92.0884 101.868 86.9678H101.168C101.168 91.7053 97.3478 95.5427 92.6395 95.5427V96.2427ZM83.4112 86.9678C83.4112 92.0884 87.5411 96.2427 92.6395 96.2427V95.5427C87.9311 95.5427 84.1112 91.7052 84.1112 86.9678H83.4112ZM92.6362 90.8378C91.0691 90.846 89.6517 89.9083 89.0463 88.4628L88.4006 88.7332C89.1155 90.4402 90.7893 91.5475 92.6399 91.5378L92.6362 90.8378ZM92.9881 91.1878V91.1878H92.2881V91.1878H92.9881ZM95.363 89.7004C94.6411 90.426 93.6606 90.8351 92.6372 90.8378L92.639 91.5378C93.8481 91.5346 95.0065 91.0513 95.8592 90.194L95.363 89.7004ZM96.4861 86.9686C96.4888 87.9921 96.0848 88.9747 95.363 89.7004L95.8592 90.194C96.712 89.3368 97.1893 88.1759 97.1861 86.9668L96.4861 86.9686ZM94.0923 83.3902C95.541 83.9881 96.4861 85.4005 96.4861 86.9677L97.1861 86.9677C97.1861 85.1171 96.07 83.4491 94.3593 82.7432L94.0923 83.3902ZM89.8722 84.2383C90.9774 83.1273 92.6436 82.7924 94.0923 83.3902L94.3593 82.7432C92.6486 82.0372 90.6811 82.4326 89.3759 83.7446L89.8722 84.2383ZM89.0463 88.4628C88.4409 87.0173 88.767 85.3494 89.8722 84.2383L89.3759 83.7446C88.0708 85.0567 87.6857 87.0263 88.4006 88.7332L89.0463 88.4628Z" fill="#1B1B1B"/>
<rect x="105.711" y="80.751" width="73.7391" height="4.97948" rx="2.48974" fill="white" stroke="#1B1B1B" stroke-width="0.7" stroke-linecap="round" stroke-linejoin="round"/>
<rect x="105.711" y="88.2803" width="26.9566" height="4.90421" rx="2.45211" fill="white" stroke="#1B1B1B" stroke-width="0.7" stroke-linecap="round" stroke-linejoin="round"/>
<rect x="135.634" y="88.2803" width="26.9566" height="4.90421" rx="2.45211" fill="white" stroke="#1B1B1B" stroke-width="0.7" stroke-linecap="round" stroke-linejoin="round"/>
<path d="M94.5075 16.5967L91.4006 19.0952" stroke="#1B1B1B" stroke-width="0.7" stroke-linecap="round" stroke-linejoin="round"/>
<path d="M171.59 147.802C169.13 150.287 166.14 152.184 162.844 153.35" stroke="#1B1B1B" stroke-width="0.7" stroke-linecap="round" stroke-linejoin="round"/>
<ellipse cx="63.264" cy="165.111" rx="14.5938" ry="1.27933" fill="#1B1B1B" stroke="#1B1B1B" stroke-width="0.7" stroke-linecap="round" stroke-linejoin="round"/>
<path d="M68.3483 136.671L67.8429 136.853C67.8429 136.853 47.7215 87.0175 0 74.2744C0 74.2744 43.5864 81.5179 68.3483 136.671Z" fill="#190000"/>
<path d="M107.513 82.8926C107.513 82.8926 67.1842 89.8002 59.0044 134.196L61.3097 135.316C61.3097 135.316 101.65 120.666 107.513 82.8926Z" fill="white"/>
<mask id="mask2_3_2" style="mask-type:luminance" maskUnits="userSpaceOnUse" x="59" y="82" width="49" height="54">
<path fill-rule="evenodd" clip-rule="evenodd" d="M107.514 82.8936C107.514 82.8936 67.1847 89.8012 59.0049 134.197L61.3102 135.317C61.3102 135.317 101.65 120.667 107.514 82.8936Z" fill="white"/>
</mask>
<g mask="url(#mask2_3_2)">
<path d="M56.3671 123.732C71.5747 113.65 106.706 138.215 91.8991 114.23C77.0918 90.2445 121.683 144.213 121.683 144.213L55.1721 136.835" fill="white"/>
</g>
<path fill-rule="evenodd" clip-rule="evenodd" d="M107.513 82.8926C107.513 82.8926 67.1842 89.8002 59.0044 134.196L61.3097 135.316C61.3097 135.316 101.65 120.666 107.513 82.8926Z" stroke="#1B1B1B" stroke-width="0.7" stroke-linecap="round" stroke-linejoin="round"/>
<path fill-rule="evenodd" clip-rule="evenodd" d="M104.081 85.9209C99.8068 88.5696 94.9572 92.8598 90.0736 97.8216L90.0736 97.8217C90.1012 97.8271 96.282 99.0406 102.178 96.9043C96.4948 99.7098 89.0393 98.8888 89.0328 98.888C83.5284 104.581 78.0316 111.038 73.313 116.883C73.5496 116.928 81.4673 118.401 89.0649 115.595C82.3251 118.972 73.7063 118.436 72.168 118.308C64.9369 127.351 59.8029 134.584 59.8029 134.584L59.0049 134.196C59.0049 134.196 68.1823 121.184 79.2953 108.417C78.1475 105.584 77.7813 102.494 78.2349 99.4714C77.9777 103.983 79.6102 106.836 80.0655 107.537C88.0456 98.4523 96.9237 89.6475 104.081 85.9209ZM90.0072 97.8889L89.2129 98.7028C89.4777 98.4298 89.7424 98.1585 90.0072 97.8889Z" fill="white"/>
<path d="M85.0869 33.5283C85.0869 33.5283 39.7874 67.2085 61.2376 128.671C61.2376 128.671 104.703 85.1471 85.0869 33.5283Z" fill="white"/>
<mask id="mask3_3_2" style="mask-type:luminance" maskUnits="userSpaceOnUse" x="55" y="33" width="36" height="96">
<path fill-rule="evenodd" clip-rule="evenodd" d="M85.0864 33.5283C85.0864 33.5283 39.7869 67.2085 61.2372 128.671C61.2372 128.671 104.702 85.1471 85.0864 33.5283Z" fill="white"/>
</mask>
<g mask="url(#mask3_3_2)">
<path d="M60.2028 51.1929C79.0484 74.7575 52.1284 127.656 89.0302 84.083C125.932 40.5102 82.9687 135.316 82.9687 135.316C82.9687 135.316 34.6171 153.469 34.1724 148.989C33.7277 144.509 16.5371 68.0999 16.5371 68.0999L30.062 45.8516" fill="white"/>
</g>
<path fill-rule="evenodd" clip-rule="evenodd" d="M85.0869 33.5283C85.0869 33.5283 39.7874 67.2085 61.2376 128.671V128.671C61.2376 128.671 104.703 85.1471 85.0869 33.5283Z" stroke="#1B1B1B" stroke-width="0.7" stroke-linecap="round" stroke-linejoin="round"/>
<path fill-rule="evenodd" clip-rule="evenodd" d="M74.0088 63.2676C74.0549 63.2554 82.6113 60.9799 88.4286 54.6277C83.3527 61.6987 73.4895 65.2591 73.4725 65.2653C70.6743 75.8977 68.4309 87.4976 66.7201 97.8382C67.349 97.6644 78.0672 94.6094 85.4181 86.4747C79.4311 94.9268 68.3165 99.5679 66.3095 100.355C63.749 116.311 62.5097 128.672 62.5097 128.672H61.2397C61.2397 128.672 63.3951 106.47 68.1368 83.3862C66.4123 81.9698 62.6446 78.3939 60.4417 72.6742C63.3361 78.5653 67.4022 81.1822 68.4687 81.7925C71.9328 65.3213 76.7143 48.6511 82.972 39.4961C79.5366 45.5011 76.5544 53.9473 74.0087 63.2677L74.0088 63.2676ZM73.5622 64.9249C73.699 64.4077 73.8372 63.8929 73.9767 63.3803L73.5622 64.9249Z" fill="white"/>
<path d="M50.7532 68.1006C50.7532 68.1006 29.4854 100.424 59.9745 135.615L62.4167 134.776C62.4167 134.776 77.4247 97.2889 50.7532 68.1006Z" fill="white"/>
<mask id="mask4_3_2" style="mask-type:luminance" maskUnits="userSpaceOnUse" x="43" y="68" width="24" height="68">
<path fill-rule="evenodd" clip-rule="evenodd" d="M50.753 68.1006C50.753 68.1006 29.4852 100.424 59.9743 135.615L62.4164 134.776C62.4164 134.776 77.4244 97.2889 50.753 68.1006Z" fill="white"/>
</mask>
<g mask="url(#mask4_3_2)">
<path d="M50.7518 68.101C50.7516 98.3365 5.12957 90.0585 55.8783 115.984C92.2886 134.585 19.365 163.338 19.365 163.338C19.365 163.338 -29.6333 147.032 -27.1875 143.26C-24.7417 139.488 9.48598 69.1101 9.48598 69.1101L33.8942 60.2891" fill="white"/>
</g>
<path fill-rule="evenodd" clip-rule="evenodd" d="M50.7532 68.1006C50.7532 68.1006 29.4854 100.424 59.9745 135.615L62.4167 134.776C62.4167 134.776 77.4247 97.2889 50.7532 68.1006Z" stroke="#1B1B1B" stroke-width="0.7" stroke-linecap="round" stroke-linejoin="round"/>
<path fill-rule="evenodd" clip-rule="evenodd" d="M55.4904 114.248C55.6843 114.116 62.1499 109.654 64.9385 102.562C63.1739 109.479 56.9628 115.053 55.8806 115.983C58.3852 126.978 60.8207 135.324 60.8207 135.324L59.9754 135.614C59.9754 135.614 55.5542 120.639 52.6215 104.498C49.5921 103.416 46.8666 101.622 44.6741 99.2685C48.1546 102.45 51.5511 103.228 52.4221 103.382C50.3831 91.8459 49.1686 79.8787 50.9191 72.4766C50.2163 77.1789 50.4592 83.3701 51.2232 90.0317L51.2234 90.0316C51.2583 90.008 56.3475 86.5691 58.5421 81.0999C57.0338 86.8533 51.4403 91.419 51.3935 91.4572L51.3932 91.4574C52.3353 99.0325 53.9016 107.112 55.4904 114.248ZM51.3665 91.2316C51.3201 90.8552 51.2754 90.4801 51.2321 90.1063L51.3665 91.2316Z" fill="white"/>
<path d="M30.064 104.613C30.064 104.613 31.4974 129.549 64.4269 136.073L65.4951 134.699C65.4951 134.699 58.1855 109.493 30.064 104.613Z" fill="white"/>
<mask id="mask5_3_2" style="mask-type:luminance" maskUnits="userSpaceOnUse" x="30" y="104" width="36" height="33">
<path fill-rule="evenodd" clip-rule="evenodd" d="M30.0645 104.614C30.0645 104.614 31.4979 129.55 64.4274 136.073L65.4956 134.7C65.4956 134.7 58.186 109.494 30.0645 104.614Z" fill="white"/>
</mask>
<g mask="url(#mask5_3_2)">
<path d="M14.6982 109.105C44.7037 131.056 50.0329 119.969 68.3487 134.585C86.6644 149.2 36.9679 147.27 36.9679 147.27L22.9028 136.853" fill="white"/>
</g>
<path fill-rule="evenodd" clip-rule="evenodd" d="M30.064 104.613C30.064 104.613 31.4974 129.549 64.4269 136.073L65.4951 134.699C65.4951 134.699 58.1855 109.493 30.064 104.613Z" stroke="#1B1B1B" stroke-width="0.7" stroke-linecap="round" stroke-linejoin="round"/>
<path fill-rule="evenodd" clip-rule="evenodd" d="M53.6084 127.469C59.7907 132.206 64.7967 135.597 64.7967 135.597L64.427 136.073C64.427 136.073 55.4175 130.007 46.7766 122.766C44.5296 123.371 42.1791 123.489 39.8829 123.111C43.2845 123.423 45.605 122.519 46.1794 122.265C40.0368 117.067 34.1911 111.33 32.0383 106.819C33.6449 109.527 36.4447 112.644 39.7495 115.803L39.7497 115.803C39.77 115.752 41.256 112.026 40.1963 108.36C41.7826 111.921 40.4732 116.434 40.4614 116.475C44.2644 120.042 48.6427 123.628 52.636 126.719C52.696 126.567 54.5575 121.773 53.1462 117.028C55.0825 121.293 53.8424 126.571 53.6084 127.469ZM39.9705 116.014C39.9868 116.029 40.0031 116.045 40.0194 116.06L39.8424 115.892C39.8848 115.933 39.9277 115.973 39.9705 116.014Z" fill="white"/>
<path d="M77.8573 132.867H48.6697C50.9577 135.741 50.9104 139.012 48.4582 141.846C43.0965 148.041 37.9445 158.773 48.6697 165.112H77.8573C88.5825 158.773 83.4305 148.041 78.0687 141.846C75.6166 139.012 75.5693 135.741 77.8573 132.867Z" fill="white"/>
<mask id="mask6_3_2" style="mask-type:luminance" maskUnits="userSpaceOnUse" x="42" y="132" width="43" height="34">
<path fill-rule="evenodd" clip-rule="evenodd" d="M77.8582 132.867H48.6707C50.9587 135.741 50.9113 139.012 48.4592 141.846C43.0975 148.041 37.9454 158.773 48.6707 165.112H77.8582C88.5835 158.773 83.4314 148.041 78.0697 141.846C75.6176 139.012 75.5702 135.741 77.8582 132.867Z" fill="white"/>
</mask>
<g mask="url(#mask6_3_2)">
<path d="M89.416 120.45C47.1288 137.694 103.359 162.427 58.543 166.036C13.7274 169.646 89.0335 178.129 89.0335 178.129L95.6064 176.872L107.515 154.564L90.1734 135.317L81.5444 130.901L89.416 120.45Z" fill="white"/>
</g>
<path fill-rule="evenodd" clip-rule="evenodd" d="M77.8573 132.867H48.6697C50.9577 135.741 50.9104 139.012 48.4582 141.846C43.0965 148.041 37.9445 158.773 48.6697 165.112H77.8573C88.5825 158.773 83.4305 148.041 78.0687 141.846C75.6166 139.012 75.5693 135.741 77.8573 132.867Z" stroke="#1B1B1B" stroke-width="0.7" stroke-linecap="round" stroke-linejoin="round"/>
<path d="M57.9795 152.902C60.4152 154.653 63.4723 155.303 66.4097 154.697" stroke="#1B1B1B" stroke-width="0.7" stroke-linecap="round" stroke-linejoin="round"/>
<path d="M77.7146 79.7109L76.1243 81.89" stroke="#1B1B1B" stroke-width="0.7" stroke-linecap="round" stroke-linejoin="round"/>
<rect x="236.842" y="93.917" width="13.6921" height="30.1527" fill="white"/>
<mask id="mask7_3_2" style="mask-type:luminance" maskUnits="userSpaceOnUse" x="236" y="93" width="15" height="32">
<rect x="236.842" y="93.917" width="13.6921" height="30.1527" fill="white"/>
</mask>
<g mask="url(#mask7_3_2)">
<path d="M253.335 98.5023C249.74 109.028 238.332 100.656 238.019 108.085C237.707 115.514 248.721 116.817 254.857 115.514C260.992 114.212 250.534 127.565 250.534 127.565L226.767 120.496L232.393 97.7168L242.552 98.1881" fill="#43395E"/>
</g>
<rect x="236.842" y="93.917" width="13.6921" height="30.1527" stroke="#1B1B1B" stroke-width="0.7" stroke-linecap="round" stroke-linejoin="round"/>
<path d="M243.689 164.165C236.946 164.165 231.524 158.587 231.681 151.811L232.52 115.515H254.857L255.697 151.811C255.853 158.587 250.431 164.165 243.689 164.165Z" fill="white"/>
<mask id="mask8_3_2" style="mask-type:luminance" maskUnits="userSpaceOnUse" x="231" y="115" width="25" height="50">
<path fill-rule="evenodd" clip-rule="evenodd" d="M243.687 164.164C236.944 164.164 231.522 158.586 231.679 151.81L232.519 115.514H254.856L255.695 151.81C255.852 158.586 250.43 164.164 243.687 164.164Z" fill="white"/>
</mask>
<g mask="url(#mask8_3_2)">
<path d="M253.802 110.44C255.501 166.335 239.581 156.285 228.954 157.713C218.327 159.141 243.687 176.421 243.687 176.421L267.399 179.249L270.964 134.948L258.335 117.572" fill="#43395E"/>
</g>
<path fill-rule="evenodd" clip-rule="evenodd" d="M243.689 164.165V164.165C236.946 164.165 231.524 158.587 231.681 151.811L232.52 115.515H254.857L255.697 151.811C255.853 158.587 250.431 164.165 243.689 164.165Z" stroke="#1B1B1B" stroke-width="0.7" stroke-linecap="round" stroke-linejoin="round"/>
<path fill-rule="evenodd" clip-rule="evenodd" d="M205.831 66.2232C205.831 45.357 222.658 28.4414 243.415 28.4414C264.173 28.4414 281 45.357 281 66.2232C281 87.0896 264.173 104.005 243.415 104.005C222.658 104.005 205.831 87.0896 205.831 66.2232ZM215.866 66.2232C215.866 81.5183 228.2 93.9175 243.416 93.9175C258.631 93.9175 270.966 81.5183 270.966 66.2232C270.966 50.928 258.631 38.5289 243.416 38.5289C228.2 38.5289 215.866 50.928 215.866 66.2232Z" fill="#2E2642"/>
<path d="M281 66.2232H280.65H281ZM243.415 28.0914C222.463 28.0914 205.481 45.1654 205.481 66.2232H206.181C206.181 45.5486 222.853 28.7914 243.415 28.7914V28.0914ZM205.481 66.2232C205.481 87.2812 222.463 104.355 243.415 104.355V103.655C222.853 103.655 206.181 86.898 206.181 66.2232H205.481ZM243.415 104.355C264.368 104.355 281.35 87.2812 281.35 66.2232H280.65C280.65 86.898 263.978 103.655 243.415 103.655V104.355ZM281.35 66.2232C281.35 45.1655 264.368 28.0914 243.415 28.0914V28.7914C263.978 28.7914 280.65 45.5486 280.65 66.2232H281.35ZM243.416 93.5675C228.395 93.5675 216.216 81.3267 216.216 66.2232H215.516C215.516 81.7099 228.005 94.2675 243.416 94.2675V93.5675ZM216.216 66.2232C216.216 51.1196 228.395 38.8789 243.416 38.8789V38.1789C228.005 38.1789 215.516 50.7365 215.516 66.2232H216.216ZM243.416 38.8789C258.436 38.8789 270.616 51.1196 270.616 66.2232H271.316C271.316 50.7365 258.826 38.1789 243.416 38.1789V38.8789ZM270.616 66.2232C270.616 81.3267 258.436 93.5675 243.416 93.5675V94.2675C258.826 94.2675 271.316 81.7099 271.316 66.2232H270.616Z" fill="#43395E"/>
<path d="M227.512 37.6592C225.896 39.3877 223.998 40.8288 221.899 41.9208" stroke="#1B1B1B" stroke-width="0.7" stroke-linecap="round" stroke-linejoin="round"/>
<path d="M247.21 138.993L245.804 140.878" stroke="#1B1B1B" stroke-width="0.7" stroke-linecap="round" stroke-linejoin="round"/>
<path d="M173.83 81.9997C170.193 80.8451 170.841 72.5643 177.966 73.5385C185.091 74.5126 183.838 87.6638 194.971 86.9061C206.535 86.1192 205.76 113.925 190.385 110.123C179.125 107.339 173.83 81.9997 173.83 81.9997Z" fill="#1B1B1B"/>
<mask id="mask9_3_2" style="mask-type:luminance" maskUnits="userSpaceOnUse" x="171" y="73" width="32" height="38">
<path fill-rule="evenodd" clip-rule="evenodd" d="M173.83 81.9987C170.193 80.8441 170.84 72.5633 177.966 73.5375C185.091 74.5116 183.838 87.6628 194.971 86.9052C206.534 86.1182 205.76 113.924 190.384 110.122C179.124 107.338 173.83 81.9987 173.83 81.9987Z" fill="white"/>
</mask>
<g mask="url(#mask9_3_2)">
<path d="M197.514 110.174C198.597 103.47 184.569 101.372 185.612 98.5254C186.655 95.6785 187.704 92.4714 184.593 91.1942C181.482 89.917 179.195 96.8465 179.195 96.8465L178.082 102.418L180.012 106.698L197.757 111.223" fill="#323442"/>
</g>
<path fill-rule="evenodd" clip-rule="evenodd" d="M173.83 81.9997C170.193 80.8451 170.841 72.5643 177.966 73.5385C185.091 74.5126 183.838 87.6638 194.971 86.9061C206.535 86.1192 205.76 113.925 190.385 110.123C179.125 107.339 173.83 81.9997 173.83 81.9997Z" stroke="#1B1B1B" stroke-width="0.7" stroke-linecap="round" stroke-linejoin="round"/>
<path d="M172.459 80.9528C172.459 80.9528 176.08 78.5537 179.197 80.4298L178.82 81.9692L173.427 82.2819L172.459 80.9528Z" fill="#1B1B1B" stroke="#1B1B1B" stroke-width="0.7" stroke-linecap="round" stroke-linejoin="round"/>
<path d="M151.306 142.875C150.553 139.823 138.79 99.7669 178.223 99.889C217.655 100.011 202.882 146.164 202.882 146.164L151.306 142.875Z" fill="white"/>
<mask id="mask10_3_2" style="mask-type:luminance" maskUnits="userSpaceOnUse" x="149" y="99" width="57" height="48">
<path fill-rule="evenodd" clip-rule="evenodd" d="M151.305 142.875C150.551 139.823 138.789 99.7669 178.221 99.889C217.653 100.011 202.88 146.164 202.88 146.164L151.305 142.875Z" fill="white"/>
</mask>
<g mask="url(#mask10_3_2)">
<ellipse cx="177.461" cy="100.385" rx="10.1433" ry="7.4614" fill="white" stroke="white" stroke-width="0.7" stroke-linecap="round" stroke-linejoin="round"/>
<ellipse cx="177.461" cy="100.385" rx="7.56254" ry="5.56299" fill="white"/>
<mask id="mask11_3_2" style="mask-type:luminance" maskUnits="userSpaceOnUse" x="169" y="94" width="17" height="12">
<ellipse cx="177.46" cy="100.385" rx="7.56254" ry="5.56299" fill="white"/>
</mask>
<g mask="url(#mask11_3_2)">
<ellipse cx="173.076" cy="100.049" rx="9.32489" ry="4.54618" fill="white"/>
</g>
<ellipse cx="177.461" cy="100.385" rx="7.56254" ry="5.56299" stroke="white" stroke-width="0.7" stroke-linecap="round" stroke-linejoin="round"/>
<path d="M197.153 115.295C197.092 117.714 195.962 124.7 195.962 124.7L197.813 119.742L197.153 115.295Z" fill="#1B1B1B" stroke="white" stroke-width="0.7" stroke-linecap="round" stroke-linejoin="round"/>
</g>
<path fill-rule="evenodd" clip-rule="evenodd" d="M151.306 142.875C150.553 139.823 138.79 99.7669 178.223 99.889C217.655 100.011 202.882 146.164 202.882 146.164L151.306 142.875Z" stroke="#1B1B1B" stroke-width="0.7" stroke-linecap="round" stroke-linejoin="round"/>
<path d="M177.249 105.32C177.05 110.358 168.012 112.151 166.079 101.202C166.079 101.202 171.597 98.1388 171.688 99.6527C171.978 104.483 177.249 105.32 177.249 105.32Z" fill="white" stroke="#1B1B1B" stroke-width="0.7" stroke-linecap="round" stroke-linejoin="round"/>
<path d="M177.2 105.321C177.399 110.359 186.055 111.812 188.798 101.304C188.798 101.304 182.852 98.1394 182.761 99.6533C182.471 104.484 177.2 105.321 177.2 105.321Z" fill="white" stroke="#1B1B1B" stroke-width="0.7" stroke-linecap="round" stroke-linejoin="round"/>
<path d="M196.282 149.829H155.373L152.88 122.331C152.655 119.84 154.197 117.784 156.331 117.784H195.324C197.457 117.784 199 119.84 198.775 122.331L196.282 149.829Z" fill="white"/>
<mask id="mask12_3_2" style="mask-type:luminance" maskUnits="userSpaceOnUse" x="152" y="117" width="47" height="33">
<path fill-rule="evenodd" clip-rule="evenodd" d="M196.281 149.828H155.372L152.88 122.33C152.654 119.839 154.197 117.783 156.33 117.783H195.324C197.457 117.783 199 119.839 198.774 122.33L196.281 149.828Z" fill="white"/>
</mask>
<g mask="url(#mask12_3_2)">
<path d="M148.094 132.976C156.845 128.626 170.894 142.356 178.325 146.092C185.757 149.828 192.008 128.922 202.166 131.837C212.324 134.753 191.761 150.346 191.761 150.346L165.055 151.876" fill="white"/>
</g>
<path fill-rule="evenodd" clip-rule="evenodd" d="M196.282 149.829H155.373L152.88 122.331C152.655 119.84 154.197 117.784 156.331 117.784H195.324C197.457 117.784 199 119.84 198.775 122.331L196.282 149.829Z" stroke="#1B1B1B" stroke-width="0.7" stroke-linecap="round" stroke-linejoin="round"/>
<path d="M178.768 132.132C178.648 133.325 177.449 134.21 176.081 134.185C174.713 134.16 173.548 133.233 173.474 132.036C173.394 130.745 174.597 129.644 176.167 129.672C177.738 129.701 178.898 130.845 178.768 132.132Z" fill="white" stroke="#1B1B1B" stroke-width="0.7" stroke-linecap="round" stroke-linejoin="round"/>
<path d="M208.499 154.586L211.478 154.173C211.478 154.173 216.759 160.636 202.948 163.408L208.499 154.586Z" fill="#1B1B1B" stroke="#1B1B1B" stroke-width="0.7" stroke-linecap="round" stroke-linejoin="round"/>
<path d="M204.501 153.783C207.071 153.582 209.273 153.509 210.425 153.691C214.287 154.304 210.653 161.91 202.948 163.409C202.948 163.409 208.06 156.599 204.501 153.783Z" fill="white" stroke="white" stroke-width="0.7" stroke-linecap="round" stroke-linejoin="round"/>
<path d="M188.91 155.645C188.91 155.645 197.917 154.298 204.502 153.783C208.061 156.599 202.949 163.409 202.949 163.409C202.459 163.504 201.965 163.573 201.468 163.615C192.761 164.348 185.312 163.595 184.305 162.808C183.298 162.02 188.91 155.645 188.91 155.645Z" fill="#1B1B1B" stroke="#1B1B1B" stroke-width="0.7" stroke-linecap="round" stroke-linejoin="round"/>
<path d="M183.051 151.013C187.608 153.939 190.583 155.97 190.583 155.97C192.267 158.153 191.598 160.082 190.681 161.359C189.926 162.392 188.692 162.963 187.416 162.869C185.542 162.741 183.663 162.565 181.789 162.343C182.465 159.225 183.342 154.336 183.051 151.013Z" fill="white" stroke="#1B1B1B" stroke-width="0.7" stroke-linecap="round" stroke-linejoin="round"/>
<path d="M136.834 131.226C141.262 125.274 169.331 142.202 183.052 151.012C183.343 154.336 182.466 159.225 181.789 162.343C153.497 158.997 126.348 145.322 136.834 131.226Z" fill="white"/>
<path fill-rule="evenodd" clip-rule="evenodd" d="M136.834 131.226C141.262 125.274 169.331 142.202 183.052 151.012C183.343 154.336 182.466 159.225 181.789 162.343C153.497 158.997 126.348 145.322 136.834 131.226Z" stroke="#1B1B1B" stroke-width="0.7" stroke-linecap="round" stroke-linejoin="round"/>
<ellipse cx="177.248" cy="93.0216" rx="7.45922" ry="10.4991" fill="white"/>
<mask id="mask13_3_2" style="mask-type:luminance" maskUnits="userSpaceOnUse" x="169" y="82" width="16" height="22">
<ellipse cx="177.247" cy="93.0206" rx="7.45922" ry="10.4991" fill="white"/>
</mask>
<g mask="url(#mask13_3_2)">
<path d="M174.662 94.2708C175.035 94.2813 175.328 94.5917 175.318 94.9642L175.285 96.1163C175.28 96.2952 175.205 96.4648 175.074 96.5877C174.944 96.7107 174.771 96.7769 174.592 96.7719C174.22 96.7615 173.926 96.4511 173.936 96.0786L173.969 94.9264C173.979 94.5539 174.29 94.2604 174.662 94.2708V94.2708Z" fill="#1B1B1B"/>
<path d="M179.853 94.2034C180.226 94.2139 180.519 94.5243 180.509 94.8968L180.477 96.049C180.466 96.4215 180.156 96.715 179.783 96.7046C179.411 96.6941 179.117 96.3837 179.128 96.0112L179.16 94.8591C179.171 94.4865 179.481 94.193 179.853 94.2034L179.853 94.2034Z" fill="#1B1B1B"/>
<path d="M177.286 95.6436C176.895 96.853 177.268 97.214 177.268 97.214C175.201 96.9494 176.934 98.9613 176.934 98.9613" stroke="#1B1B1B" stroke-width="0.60747" stroke-linecap="round" stroke-linejoin="round"/>
<path d="M178.165 99.3828C178.021 99.7979 177.604 100.053 177.168 99.9933" stroke="#1B1B1B" stroke-width="0.60747" stroke-linecap="round" stroke-linejoin="round"/>
<path d="M174.538 92.6676C173.151 93.0327 173.509 93.7975 174.391 93.6261C175.273 93.4548 175.445 92.4291 174.538 92.6676Z" fill="#1B1B1B"/>
<path d="M179.859 92.5509C181.224 92.993 180.93 93.6816 180.058 93.4612C179.187 93.2408 178.967 92.2621 179.859 92.5509Z" fill="#1B1B1B"/>
</g>
<ellipse cx="177.248" cy="93.0216" rx="7.45922" ry="10.4991" stroke="#1B1B1B" stroke-width="0.7" stroke-linecap="round" stroke-linejoin="round"/>
<path d="M170.334 91.8276C166.029 89.8106 165.089 93.0337 167.069 95.6796C168.553 97.664 170.204 97.4024 170.937 97.1476" fill="white"/>
<path d="M170.334 91.8276C166.029 89.8106 165.089 93.0337 167.069 95.6796C168.553 97.664 170.204 97.4024 170.937 97.1476" stroke="#1B1B1B" stroke-width="0.7" stroke-linecap="round" stroke-linejoin="round"/>
<path d="M183.391 91.8276C187.696 89.8106 188.636 93.0337 186.657 95.6796C185.387 97.3764 183.996 97.431 183.161 97.2519" fill="white"/>
<path d="M183.391 91.8276C187.696 89.8106 188.636 93.0337 186.657 95.6796C185.387 97.3764 183.996 97.431 183.161 97.2519" stroke="#1B1B1B" stroke-width="0.7" stroke-linecap="round" stroke-linejoin="round"/>
<path d="M175.059 86.852C173.946 95.2945 168.973 93.9957 168.973 93.9957C168.973 93.9957 166.079 81.5122 176.767 81.6565C187.454 81.8008 184.708 93.0215 184.708 93.0215C184.708 93.0215 176.247 93.2019 175.059 86.852Z" fill="#1B1B1B" stroke="#1B1B1B" stroke-width="0.7" stroke-linecap="round" stroke-linejoin="round"/>
<path d="M146.283 154.586L143.304 154.173C143.304 154.173 138.022 160.636 151.834 163.408L146.283 154.586Z" fill="#1B1B1B" stroke="#1B1B1B" stroke-width="0.7" stroke-linecap="round" stroke-linejoin="round"/>
<path d="M150.281 153.783C147.711 153.582 145.509 153.509 144.358 153.691C140.495 154.304 144.129 161.91 151.835 163.409C151.834 163.409 146.722 156.599 150.281 153.783Z" fill="white" stroke="white" stroke-width="0.7" stroke-linecap="round" stroke-linejoin="round"/>
<path d="M165.873 155.645C165.873 155.645 156.865 154.298 150.28 153.783C146.721 156.599 151.833 163.409 151.833 163.409C152.323 163.504 152.817 163.573 153.314 163.615C162.021 164.348 169.47 163.595 170.477 162.808C171.485 162.02 165.873 155.645 165.873 155.645Z" fill="#1B1B1B" stroke="#1B1B1B" stroke-width="0.7" stroke-linecap="round" stroke-linejoin="round"/>
<path d="M171.729 151.013C167.173 153.939 164.198 155.97 164.198 155.97C162.514 158.153 163.182 160.082 164.1 161.359C164.855 162.392 166.089 162.963 167.365 162.869C169.238 162.741 171.118 162.565 172.992 162.343C172.315 159.225 171.438 154.336 171.729 151.013Z" fill="white"/>
<mask id="mask14_3_2" style="mask-type:luminance" maskUnits="userSpaceOnUse" x="163" y="151" width="10" height="12">
<path fill-rule="evenodd" clip-rule="evenodd" d="M171.731 151.013C167.174 153.939 164.199 155.97 164.199 155.97C162.515 158.153 163.184 160.082 164.101 161.359C164.856 162.392 166.09 162.963 167.366 162.869C169.24 162.741 171.119 162.565 172.993 162.343C172.317 159.225 171.44 154.336 171.731 151.013Z" fill="white"/>
</mask>
<g mask="url(#mask14_3_2)">
<path d="M164.763 154.708C164.358 158.859 167.921 163.336 171.159 161.87C174.398 160.405 169.627 151.632 171.729 151.013C173.831 150.394 175.208 163.913 175.208 163.913C175.208 163.913 174.317 164.312 173.507 164.638C172.698 164.963 165.168 164.963 165.168 164.963L161.038 158.791L161.848 153.587L165.872 155.645" fill="white"/>
</g>
<path fill-rule="evenodd" clip-rule="evenodd" d="M171.729 151.013C167.173 153.939 164.198 155.97 164.198 155.97C162.514 158.153 163.182 160.082 164.1 161.359C164.855 162.392 166.089 162.963 167.365 162.869C169.238 162.741 171.118 162.565 172.992 162.343C172.315 159.225 171.438 154.336 171.729 151.013Z" stroke="#1B1B1B" stroke-width="0.7" stroke-linecap="round" stroke-linejoin="round"/>
<path d="M217.947 131.226C213.519 125.274 185.451 142.202 171.73 151.012C171.439 154.336 172.315 159.225 172.992 162.343C201.284 158.997 228.433 145.322 217.947 131.226Z" fill="white"/>
<mask id="mask15_3_2" style="mask-type:luminance" maskUnits="userSpaceOnUse" x="171" y="129" width="50" height="34">
<path fill-rule="evenodd" clip-rule="evenodd" d="M217.946 131.226C213.518 125.274 185.449 142.202 171.729 151.012C171.437 154.336 172.314 159.225 172.991 162.343C201.283 158.997 228.432 145.322 217.946 131.226Z" fill="white"/>
</mask>
<g mask="url(#mask15_3_2)">
<path d="M194.97 135.416C200.55 136.067 212.821 128.964 216.46 130.926C220.099 132.889 224.029 135.787 222.086 142.95C220.142 150.113 222.898 146.163 222.898 146.163L224.031 129.984L209.893 121.696L194.97 135.416Z" fill="white"/>
<path d="M175.019 147.361C173.951 152.454 177.338 163.911 177.338 163.911L170.596 164.551L168.56 148.763" fill="white"/>
<path d="M175.019 147.361C173.951 152.454 177.338 163.911 177.338 163.911L170.596 164.551L168.56 148.763" stroke="white" stroke-width="0.7" stroke-linecap="round" stroke-linejoin="round"/>
</g>
<path fill-rule="evenodd" clip-rule="evenodd" d="M217.947 131.226C213.519 125.274 185.451 142.202 171.73 151.012C171.439 154.336 172.315 159.225 172.992 162.343C201.284 158.997 228.433 145.322 217.947 131.226Z" stroke="#1B1B1B" stroke-width="0.7" stroke-linecap="round" stroke-linejoin="round"/>
<ellipse cx="177.114" cy="110.079" rx="0.656221" ry="0.659665" fill="#1B1B1B"/>
<ellipse cx="177.114" cy="113.899" rx="0.656221" ry="0.659665" fill="#1B1B1B"/>
<path d="M179.025 84.1963C178.993 84.773 179.133 85.3463 179.428 85.8428" stroke="#1B1B1B" stroke-width="0.7" stroke-linecap="round" stroke-linejoin="round"/>
<path d="M193.796 92.9209C194.304 93.392 194.684 93.9844 194.9 94.6424" stroke="#1B1B1B" stroke-width="0.7" stroke-linecap="round" stroke-linejoin="round"/>
<path d="M161.561 128.47C162.59 129.507 163.769 130.384 165.057 131.073" stroke="#1B1B1B" stroke-width="0.7" stroke-linecap="round" stroke-linejoin="round"/>
<path d="M194.43 146.495L191.76 147.724" stroke="#1B1B1B" stroke-width="0.7" stroke-linecap="round" stroke-linejoin="round"/>
<defs>
<linearGradient id="paint0_linear_3_2" x1="157.774" y1="183" x2="208.35" y2="196.999" gradientUnits="userSpaceOnUse">
<stop stop-color="#653DA2"/>
<stop offset="0.6875" stop-color="#C1B1DA"/>
<stop offset="1" stop-color="white"/>
<stop offset="1" stop-color="#AF9ACE"/>
</linearGradient>
</defs>
</svg>
