<svg width="21" height="20" viewBox="0 0 21 20" fill="none" xmlns="http://www.w3.org/2000/svg">
<g clip-path="url(#clip0_569_9053)">
<path d="M7.32027 2.5H4.97027C3.7286 2.5 2.71191 3.50833 2.71191 4.75V15.25C2.71191 16.4917 3.72027 17.5 4.97027 17.5H15.4619C16.7036 17.5 17.7203 16.4917 17.7203 15.25V7.75C17.7203 6.50834 16.7119 5.5 15.4619 5.5H10.6869C10.4036 5.5 10.1453 5.34167 10.0119 5.08333L9.33692 3.74166C8.95359 2.98333 8.17027 2.5 7.32027 2.5V2.5Z" stroke="white" stroke-width="1.5" stroke-linecap="round" stroke-linejoin="round"/>
<path d="M15.4786 5.5V4.73333C15.4619 3.90833 14.7952 3.25 13.9702 3.25H9.47021" stroke="white" stroke-width="1.5" stroke-linecap="round" stroke-linejoin="round"/>
<path d="M6.46191 13.75H9.47024" stroke="white" stroke-width="1.5" stroke-linecap="round" stroke-linejoin="round"/>
</g>
<defs>
<clipPath id="clip0_569_9053">
<rect width="20" height="20" fill="white" transform="translate(0.220215)"/>
</clipPath>
</defs>
</svg>
