<svg width="20" height="20" viewBox="0 0 20 20" fill="none" xmlns="http://www.w3.org/2000/svg">
<path d="M10.0012 3.6665C6.50906 3.6665 3.66797 6.50763 3.66797 9.99984C3.66797 13.4921 6.50906 16.3332 10.0012 16.3332C13.4934 16.3332 16.3345 13.4921 16.3345 9.99984C16.3345 6.50763 13.4934 3.6665 10.0012 3.6665ZM10.0012 14.9998C9.01233 14.9998 8.04564 14.7066 7.22341 14.1572C6.40117 13.6078 5.76032 12.8269 5.38188 11.9133C5.00345 10.9996 4.90444 9.99429 5.09736 9.02439C5.29028 8.05448 5.76648 7.16357 6.46573 6.4643C7.16499 5.76504 8.05589 5.28884 9.02579 5.09591C9.99568 4.90299 11.001 5.002 11.9146 5.38044C12.8282 5.75888 13.6091 6.39974 14.1585 7.22199C14.7079 8.04423 15.0012 9.01093 15.0012 9.99984C14.9997 11.3255 14.4724 12.5964 13.5351 13.5337C12.5977 14.4711 11.3268 14.9983 10.0012 14.9998Z" fill="#E5BBFF"/>
<path d="M10.6693 0H9.33594V2H10.6693V0Z" fill="#E5BBFF"/>
<path d="M10.6693 18H9.33594V20H10.6693V18Z" fill="#E5BBFF"/>
<path d="M20 9.33325H18V10.6666H20V9.33325Z" fill="#E5BBFF"/>
<path d="M1.99998 9.33325H0V10.6666H1.99998V9.33325Z" fill="#E5BBFF"/>
<path d="M16.474 15.5286L15.5312 16.4714L16.8646 17.8048L17.8074 16.862L16.474 15.5286Z" fill="#E5BBFF"/>
<path d="M3.14205 2.1951L2.19922 3.13794L3.53254 4.47128L4.47537 3.52844L3.14205 2.1951Z" fill="#E5BBFF"/>
<path d="M3.53252 15.5287L2.19922 16.8621L3.14203 17.8049L4.47533 16.4715L3.53252 15.5287Z" fill="#E5BBFF"/>
<path d="M16.8646 2.19523L15.5312 3.52856L16.4741 4.4714L17.8074 3.13806L16.8646 2.19523Z" fill="#E5BBFF"/>
</svg>
