<svg width="9" height="9" viewBox="0 0 9 9" fill="none" xmlns="http://www.w3.org/2000/svg">
<path d="M4.73034 9.00002C3.4633 9.00002 2.27445 8.50893 1.38275 7.61727C0.491056 6.72561 1.10784e-07 5.53669 1.10784e-07 4.26962C-0.000189037 3.39555 0.241832 2.53852 0.699201 1.79366C1.15657 1.0488 1.81139 0.445245 2.59099 0.0499873C2.6712 0.00910122 2.76167 -0.00725515 2.85111 0.00296C2.94056 0.0131751 3.02501 0.0495093 3.09394 0.107427C3.16286 0.165344 3.21319 0.242279 3.23866 0.328628C3.26413 0.414977 3.26359 0.506914 3.23713 0.592963C3.01467 1.31152 2.99281 2.07721 3.1739 2.80729C3.355 3.53737 3.73217 4.20408 4.26466 4.73537C4.64679 5.12034 5.10148 5.42569 5.60242 5.63375C6.10336 5.8418 6.64059 5.94843 7.18301 5.94745C7.59796 5.94777 8.01059 5.88553 8.40699 5.76283C8.49304 5.73635 8.58499 5.73581 8.67135 5.76127C8.75771 5.78673 8.83465 5.83707 8.89258 5.906C8.9505 5.97493 8.98684 6.0594 8.99704 6.14885C9.00725 6.23831 8.99088 6.32879 8.94998 6.40899C8.55472 7.18859 7.95117 7.84342 7.20631 8.3008C6.46145 8.75817 5.60442 9.0002 4.73034 9.00002ZM2.57462 0.745722C1.97009 1.11355 1.4707 1.63116 1.12478 2.24849C0.778862 2.86582 0.598111 3.56198 0.600014 4.26962C0.600014 6.54711 2.45286 8.40001 4.73034 8.40001C5.43799 8.40192 6.13415 8.22117 6.75149 7.87525C7.36882 7.52933 7.88644 7.02994 8.25426 6.4254C7.903 6.5067 7.5436 6.54767 7.18305 6.54752C6.5618 6.54871 5.94649 6.42665 5.37273 6.18843C4.79897 5.95021 4.27816 5.60055 3.84045 5.15969C3.27181 4.59213 2.85719 3.88903 2.63571 3.11675C2.41423 2.34447 2.39321 1.52849 2.57462 0.745835V0.745722Z" fill="#615B73"/>
</svg>
